<svg width="122" height="28" viewBox="0 0 122 28" fill="none" xmlns="http://www.w3.org/2000/svg">
<g clip-path="url(#clip0_7001_263)">
<path d="M36.8751 19.6573C35.2985 18.125 34.4961 16.2137 34.4961 13.9436C34.4961 11.6734 35.2945 9.76614 36.8751 8.22985C38.4517 6.6734 40.3872 5.89517 42.6776 5.89517C44.9679 5.89517 46.8993 6.6734 48.48 8.22985C50.0808 9.76211 50.8792 11.6734 50.8792 13.9436C50.8792 16.2137 50.0808 18.121 48.5001 19.6573C46.9235 21.1895 44.9679 21.9677 42.6776 21.9677C40.3872 21.9677 38.4558 21.1895 36.8751 19.6573ZM38.7864 17.879C39.8308 18.9234 41.1413 19.4557 42.6776 19.4557C44.2138 19.4557 45.5001 18.9234 46.5445 17.879C47.5889 16.8105 48.1211 15.5 48.1211 13.9436C48.1211 12.3871 47.5889 11.0766 46.5445 10.0081C45.5001 8.93953 44.2098 8.40727 42.6776 8.40727C41.1453 8.40727 39.8308 8.93953 38.7864 10.0081C37.7421 11.0766 37.23 12.3871 37.23 13.9436C37.23 15.5 37.7421 16.8347 38.7864 17.879Z" fill="black"/>
<path d="M54.6615 21.5V6.32661H62.2099C63.5809 6.32661 64.7341 6.78226 65.6938 7.72178C66.6534 8.6371 67.1293 9.76613 67.1293 11.1411C67.1293 13.121 66.0204 14.754 64.3631 15.4516L68.0405 21.504H64.972L61.7301 16.1048H57.3792V21.504H54.6575L54.6615 21.5ZM57.3833 13.6613H61.9276C63.4075 13.6613 64.4317 12.6371 64.4317 11.1815C64.4317 9.72581 63.4518 8.78629 62.1454 8.78629H57.3833V13.6613Z" fill="black"/>
<path d="M71.98 21.5V6.32661H79.6655C80.8631 6.32661 81.8631 6.69758 82.6695 7.43549C83.4961 8.15323 83.9115 9.08871 83.9115 10.2016C83.9115 11.6613 83.1937 12.7903 81.9719 13.25C83.9115 13.5968 85.0203 15.0766 85.0203 17.0161C85.0203 18.3024 84.5848 19.3871 83.6937 20.2379C82.8227 21.0887 81.734 21.5 80.4074 21.5H71.98ZM74.7018 12.4436H79.2945C80.4477 12.4436 81.2542 11.6815 81.2542 10.5726C81.2542 9.54839 80.4477 8.78629 79.3147 8.78629H74.6977V12.4436H74.7018ZM74.7018 19.0403H79.9477C81.3187 19.0403 82.3187 18.1048 82.3187 16.8629C82.3187 15.621 81.3187 14.7298 79.9235 14.7298H74.6977V19.0403H74.7018Z" fill="black"/>
<path d="M89.0404 21.5V6.32661H96.5888C97.9598 6.32661 99.113 6.78226 100.073 7.72178C101.032 8.6371 101.508 9.76613 101.508 11.1411C101.508 13.121 100.399 14.754 98.742 15.4516L102.419 21.504H99.3509L96.109 16.1048H91.7582V21.504H89.0364L89.0404 21.5ZM91.7622 13.6613H96.3065C97.7864 13.6613 98.8106 12.6371 98.8106 11.1815C98.8106 9.72581 97.8307 8.78629 96.5243 8.78629H91.7622V13.6613Z" fill="black"/>
<path d="M107.193 19.6573C105.617 18.125 104.814 16.2137 104.814 13.9436C104.814 11.6734 105.613 9.76613 107.193 8.22984C108.77 6.67339 110.706 5.89516 112.996 5.89516C115.286 5.89516 117.218 6.67339 118.798 8.22984C120.399 9.7621 121.198 11.6734 121.198 13.9436C121.198 16.2137 120.399 18.121 118.819 19.6573C117.242 21.1895 115.286 21.9677 112.996 21.9677C110.706 21.9677 108.774 21.1895 107.193 19.6573ZM109.105 17.879C110.149 18.9234 111.46 19.4556 112.996 19.4556C114.532 19.4556 115.819 18.9234 116.863 17.879C117.907 16.8105 118.439 15.5 118.439 13.9436C118.439 12.3871 117.907 11.0766 116.863 10.0081C115.819 8.93952 114.528 8.40726 112.996 8.40726C111.464 8.40726 110.149 8.93952 109.105 10.0081C108.06 11.0766 107.548 12.3871 107.548 13.9436C107.548 15.5 108.06 16.8347 109.105 17.879Z" fill="black"/>
<path d="M15.0346 0.0346385C12.7402 -0.130684 10.5588 0.260445 8.59909 1.07899C8.14748 1.26851 7.85715 1.70803 7.85715 2.19593V6.24029C7.85715 7.13142 8.57893 7.8532 9.47006 7.8532H13.8854C17.2241 7.8532 20.0991 10.4217 20.2563 13.7564C20.4257 17.321 17.587 20.2605 14.0588 20.2605C10.6313 20.2605 7.85312 17.4822 7.85312 14.0548V9.46207C7.85312 8.57094 7.13135 7.84916 6.24022 7.84916H2.1999C1.71199 7.84916 1.26844 8.13949 1.08296 8.5911C0.260379 10.5548 -0.13075 12.7403 0.034573 15.0347C0.534573 21.954 6.17167 27.5387 13.0991 27.9702C21.5386 28.4984 28.4983 21.5387 27.9701 13.0992C27.5386 6.17174 21.9539 0.534639 15.0346 0.0346385Z" fill="url(#paint0_linear_7001_263)"/>
</g>
<defs>
<linearGradient id="paint0_linear_7001_263" x1="4.19535" y1="1.86468" x2="30.2995" y2="27.9688" gradientUnits="userSpaceOnUse">
<stop stop-color="#6BD3FF"/>
<stop offset="1" stop-color="#2F44FF"/>
</linearGradient>
<clipPath id="clip0_7001_263">
<rect width="121.198" height="28" fill="white"/>
</clipPath>
</defs>
</svg>
